<?xml version="1.0" encoding="UTF-8" standalone="no"?>
<!-- Created with Inkscape (http://www.inkscape.org/) -->

<svg
   xmlns:dc="http://purl.org/dc/elements/1.1/"
   xmlns:cc="http://creativecommons.org/ns#"
   xmlns:rdf="http://www.w3.org/1999/02/22-rdf-syntax-ns#"
   xmlns:svg="http://www.w3.org/2000/svg"
   xmlns="http://www.w3.org/2000/svg"
   xmlns:sodipodi="http://sodipodi.sourceforge.net/DTD/sodipodi-0.dtd"
   xmlns:inkscape="http://www.inkscape.org/namespaces/inkscape"
   width="1275.0247"
   height="1275.03"
   id="svg2"
   version="1.1"
   inkscape:version="0.48.4 r9939"
   sodipodi:docname="T Vorlage.svg">
  <defs
     id="defs4" />
  <sodipodi:namedview
     id="base"
     pagecolor="#ffffff"
     bordercolor="#000000"
     borderopacity="1"
     inkscape:pageopacity="0.0"
     inkscape:pageshadow="2"
     inkscape:zoom="0.5"
     inkscape:cx="747.1093"
     inkscape:cy="543.75403"
     inkscape:document-units="px"
     inkscape:current-layer="g2993"
     showgrid="false"
     inkscape:window-width="1920"
     inkscape:window-height="1057"
     inkscape:window-x="1592"
     inkscape:window-y="-8"
     inkscape:window-maximized="1"
     fit-margin-top="167.07"
     fit-margin-left="100"
     fit-margin-right="100"
     fit-margin-bottom="167.07"
     borderlayer="true"
     inkscape:showpageshadow="false" />
  <metadata
     id="metadata7">
    <rdf:RDF>
      <cc:Work
         rdf:about="">
        <dc:format>image/svg+xml</dc:format>
        <dc:type
           rdf:resource="http://purl.org/dc/dcmitype/StillImage" />
      </cc:Work>
    </rdf:RDF>
  </metadata>
  <g
     inkscape:label="Ebene 1"
     inkscape:groupmode="layer"
     id="layer1"
     transform="translate(990.05693,314.77887)">
    <g
       id="g2993"
       transform="translate(-202.78609,-530.96003)">
      <g
         id="g2995"
         transform="translate(2,0)">
        <path
           sodipodi:nodetypes="ccccccccccc"
           inkscape:connector-curvature="0"
           d="m -151.75287,384.94978 -535.23102,0 -0.58916,253.32909 c 168.08436,-84.07929 320.63292,-82.53183 404.72673,93.87473 62.01869,135.86724 66.24432,440.0887 -150.31112,590.2388 l 281.39892,0.051 281.39898,-0.051 C -86.914985,1172.2423 -82.689362,868.02084 -20.670665,732.1536 63.423139,555.74704 215.97171,554.19958 384.05606,638.27887 l -0.58916,-253.32909 -535.23102,0"
           style="fill:#ff9205;fill-opacity:1;stroke:#000000;stroke-width:3.39557362px;stroke-linecap:butt;stroke-linejoin:miter;stroke-opacity:1"
           id="path2991" />
        <path
           transform="matrix(4.2127745,0,0,4.1862986,-1489.9727,-440.40369)"
           d="m 243.95184,324.92609 c 0,6.9318 -5.61934,12.55114 -12.55114,12.55114 -6.93181,0 -12.55115,-5.61934 -12.55115,-12.55114 0,-6.93181 5.61934,-12.55115 12.55115,-12.55115 6.9318,0 12.55114,5.61934 12.55114,12.55115 z"
           sodipodi:ry="12.551145"
           sodipodi:rx="12.551145"
           sodipodi:cy="324.92609"
           sodipodi:cx="231.4007"
           id="path3002"
           style="fill:#ff9205;fill-opacity:1;fill-rule:evenodd;stroke:#000000;stroke-width:1px;stroke-linecap:butt;stroke-linejoin:miter;stroke-opacity:1"
           sodipodi:type="arc" />
        <path
           inkscape:connector-curvature="0"
           id="path3780"
           d="m -238.84246,1258.0322 43.19374,-116.9263"
           style="fill:none;stroke:#000000;stroke-width:4.19951582px;stroke-linecap:butt;stroke-linejoin:miter;stroke-opacity:1" />
        <path
           sodipodi:type="arc"
           style="fill:#ff9205;fill-opacity:1;fill-rule:evenodd;stroke:#000000;stroke-width:1px;stroke-linecap:butt;stroke-linejoin:miter;stroke-opacity:1"
           id="path3765"
           sodipodi:cx="231.4007"
           sodipodi:cy="324.92609"
           sodipodi:rx="12.551145"
           sodipodi:ry="12.551145"
           d="m 243.95184,324.92609 c 0,6.9318 -5.61934,12.55114 -12.55114,12.55114 -6.93181,0 -12.55115,-5.61934 -12.55115,-12.55114 0,-6.93181 5.61934,-12.55115 12.55115,-12.55115 6.9318,0 12.55114,5.61934 12.55114,12.55115 z"
           transform="matrix(-4.2127745,0,0,4.1862986,1186.4557,-440.40368)" />
        <path
           style="fill:none;stroke:#000000;stroke-width:4.19951582px;stroke-linecap:butt;stroke-linejoin:miter;stroke-opacity:1"
           d="M -64.674538,1258.0322 -107.86828,1141.1059"
           id="path3767"
           inkscape:connector-curvature="0" />
      </g>
    </g>
  </g>
</svg>
